ffmpeg started on 2025-07-13 at 15:42:16
Report written to "D:\Convert\FFMetrics\reports\ssim_report-6.txt"
Log level: 32
Command line:
ffmpeg -hide_banner -nostdin -i "G:\\\xc0\xed\xe8\xec\xe5\\[\xd2\xee\xef]\\Fate\\\xd1\xf2\xf0\xe0\xed\xed\xe0\xff \xef\xee\xe4\xe4\xe5\xeb\xea\xe0\\[\xd4\xe8\xeb\xfc\xec] \xd8\xb8\xef\xee\xf2 \xf0\xe0\xf1\xf1\xe2\xe5\xf2\xe0\\Fate_strange_Fake_-_Whispers_of_Dawn_[AniLibria_TV]_[WEBRip_1080p]_HEVC.mkv" -i "G:\\\xc0\xed\xe8\xec\xe5\\[\xd2\xee\xef]\\Fate\\\xd1\xf2\xf0\xe0\xed\xed\xe0\xff \xef\xee\xe4\xe4\xe5\xeb\xea\xe0\\[\xd4\xe8\xeb\xfc\xec] \xd8\xb8\xef\xee\xf2 \xf0\xe0\xf1\xf1\xe2\xe5\xf2\xe0\\Fate_strange_Fake_-_Whispers_of_Dawn_[AniLibria_TV]_[WEBRip_1080p].mkv" -lavfi "[0:v]settb=AVTB,setpts=PTS-STARTPTS,format=pix_fmts=yuv420p10,fps=24000/1001,scale=1920:1080:flags=bicubic[main];[1:v]settb=AVTB,setpts=PTS-STARTPTS,format=pix_fmts=yuv420p,fps=24000/1001,scale=1920:1080:flags=bicubic[ref];[main][ref]ssim=eof_action=endall:stats_file='D\\:/Convert/FFMetrics/logs/ssim_logfile-6.txt'" -f null -
Input #0, matroska,webm, from 'G:\Аниме\[Топ]\Fate\Странная подделка\[Фильм] Шёпот рассвета\Fate_strange_Fake_-_Whispers_of_Dawn_[AniLibria_TV]_[WEBRip_1080p]_HEVC.mkv':
  Metadata:
    ENCODER         : Lavf61.7.100
  Duration: 00:55:54.11, start: -0.021000, bitrate: 1364 kb/s
  Stream #0:0(jpn): Video: hevc (Main 10), yuv420p10le(tv, bt709, progressive), 1920x1080 [SAR 1:1 DAR 16:9], 23.98 fps, 23.98 tbr, 1k tbn (default)
      Metadata:
        title           : Original
        ENCODER         : Lavc61.19.100 libx265
        BPS             : 1165096
        DURATION        : 00:55:54.058708333
        NUMBER_OF_FRAMES: 80417
        NUMBER_OF_BYTES : 488475283
        _STATISTICS_WRITING_APP: mkvpropedit v66.0.0 ('Josie') 64-bit
        _STATISTICS_WRITING_DATE_UTC: 2025-07-13 09:46:20
        _STATISTICS_TAGS: BPS DURATION NUMBER_OF_FRAMES NUMBER_OF_BYTES
  Stream #0:1(rus): Audio: aac (LC), 48000 Hz, stereo, fltp (default)
      Metadata:
        title           : AniLibria.TV
        ENCODER         : Lavc61.19.100 aac
        BPS             : 195244
        DURATION        : 00:55:54.090000000
        NUMBER_OF_FRAMES: 157224
        NUMBER_OF_BYTES : 81858246
        _STATISTICS_WRITING_APP: mkvpropedit v66.0.0 ('Josie') 64-bit
        _STATISTICS_WRITING_DATE_UTC: 2025-07-13 09:46:20
        _STATISTICS_TAGS: BPS DURATION NUMBER_OF_FRAMES NUMBER_OF_BYTES
  Stream #0:2(rus): Subtitle: ass (ssa) (default)
      Metadata:
        title           : Надписи
        BPS             : 32
        DURATION        : 00:00:05.000000000
        NUMBER_OF_FRAMES: 1
        NUMBER_OF_BYTES : 20
        _STATISTICS_WRITING_APP: mkvpropedit v66.0.0 ('Josie') 64-bit
        _STATISTICS_WRITING_DATE_UTC: 2025-07-13 09:46:20
        _STATISTICS_TAGS: BPS DURATION NUMBER_OF_FRAMES NUMBER_OF_BYTES
  Stream #0:3(rus): Subtitle: ass (ssa)
      Metadata:
        title           : Субтитры
        BPS             : 204
        DURATION        : 00:55:37.330000000
        NUMBER_OF_FRAMES: 861
        NUMBER_OF_BYTES : 85460
        _STATISTICS_WRITING_APP: mkvpropedit v66.0.0 ('Josie') 64-bit
        _STATISTICS_WRITING_DATE_UTC: 2025-07-13 09:46:20
        _STATISTICS_TAGS: BPS DURATION NUMBER_OF_FRAMES NUMBER_OF_BYTES
[h264 @ 00000151424cf640] Increasing reorder buffer to 2
Input #1, matroska,webm, from 'G:\Аниме\[Топ]\Fate\Странная подделка\[Фильм] Шёпот рассвета\Fate_strange_Fake_-_Whispers_of_Dawn_[AniLibria_TV]_[WEBRip_1080p].mkv':
  Metadata:
    encoder         : libebml v1.4.2 + libmatroska v1.6.4
    creation_time   : 2024-12-15T10:56:51.000000Z
  Duration: 00:55:54.09, start: 0.000000, bitrate: 8278 kb/s
  Stream #1:0(jpn): Video: h264 (High), yuv420p(tv, bt709, progressive), 1920x1080 [SAR 1:1 DAR 16:9], 23.98 fps, 23.98 tbr, 1k tbn (default)
      Metadata:
        title           : Original
        BPS             : 8083526
        DURATION        : 00:55:54.059000000
        NUMBER_OF_FRAMES: 80417
        NUMBER_OF_BYTES : 3389077894
        _STATISTICS_WRITING_APP: mkvmerge v66.0.0 ('Josie') 64-bit
        _STATISTICS_WRITING_DATE_UTC: 2024-12-15 10:56:51
        _STATISTICS_TAGS: BPS DURATION NUMBER_OF_FRAMES NUMBER_OF_BYTES
  Stream #1:1(rus): Audio: aac (LC), 48000 Hz, stereo, fltp (default)
      Metadata:
        title           : AniLibria.TV
        BPS             : 192000
        DURATION        : 00:55:54.090000000
        NUMBER_OF_FRAMES: 157223
        NUMBER_OF_BYTES : 80498177
        _STATISTICS_WRITING_APP: mkvmerge v66.0.0 ('Josie') 64-bit
        _STATISTICS_WRITING_DATE_UTC: 2024-12-15 10:56:51
        _STATISTICS_TAGS: BPS DURATION NUMBER_OF_FRAMES NUMBER_OF_BYTES
  Stream #1:2(rus): Subtitle: ass (ssa) (default)
      Metadata:
        title           : Надписи
        BPS             : 32
        DURATION        : 00:00:05.000000000
        NUMBER_OF_FRAMES: 1
        NUMBER_OF_BYTES : 20
        _STATISTICS_WRITING_APP: mkvmerge v66.0.0 ('Josie') 64-bit
        _STATISTICS_WRITING_DATE_UTC: 2024-12-15 10:56:51
        _STATISTICS_TAGS: BPS DURATION NUMBER_OF_FRAMES NUMBER_OF_BYTES
  Stream #1:3(rus): Subtitle: ass (ssa)
      Metadata:
        title           : Субтитры
        BPS             : 204
        DURATION        : 00:55:37.330000000
        NUMBER_OF_FRAMES: 861
        NUMBER_OF_BYTES : 85460
        _STATISTICS_WRITING_APP: mkvmerge v66.0.0 ('Josie') 64-bit
        _STATISTICS_WRITING_DATE_UTC: 2024-12-15 10:56:51
        _STATISTICS_TAGS: BPS DURATION NUMBER_OF_FRAMES NUMBER_OF_BYTES
Stream mapping:
  Stream #0:0 (hevc) -> settb:default
  Stream #1:0 (h264) -> settb:default
  ssim:default -> Stream #0:0 (wrapped_avframe)
  Stream #0:1 -> #0:1 (aac (native) -> pcm_s16le (native))
Output #0, null, to 'pipe:':
  Metadata:
    encoder         : Lavf61.7.100
  Stream #0:0: Video: wrapped_avframe, yuv420p10le(tv, bt709, progressive), 1920x1080 [SAR 1:1 DAR 16:9], q=2-31, 200 kb/s, 23.98 fps, 23.98 tbn
      Metadata:
        encoder         : Lavc61.19.100 wrapped_avframe
  Stream #0:1(rus): Audio: pcm_s16le, 48000 Hz, stereo, s16, 1536 kb/s (default)
      Metadata:
        title           : AniLibria.TV
        _STATISTICS_TAGS: BPS DURATION NUMBER_OF_FRAMES NUMBER_OF_BYTES
        BPS             : 195244
        DURATION        : 00:55:54.090000000
        NUMBER_OF_FRAMES: 157224
        NUMBER_OF_BYTES : 81858246
        _STATISTICS_WRITING_APP: mkvpropedit v66.0.0 ('Josie') 64-bit
        _STATISTICS_WRITING_DATE_UTC: 2025-07-13 09:46:20
        encoder         : Lavc61.19.100 pcm_s16le
frame=  220 fps=0.0 q=-0.0 size=N/A time=00:00:09.17 bitrate=N/A speed=17.6x    frame=  467 fps=453 q=-0.0 size=N/A time=00:00:19.47 bitrate=N/A speed=18.9x    frame=  682 fps=441 q=-0.0 size=N/A time=00:00:28.44 bitrate=N/A speed=18.4x    frame=  918 fps=446 q=-0.0 size=N/A time=00:00:38.28 bitrate=N/A speed=18.6x    frame= 1164 fps=452 q=-0.0 size=N/A time=00:00:48.54 bitrate=N/A speed=18.8x    frame= 1377 fps=444 q=-0.0 size=N/A time=00:00:57.43 bitrate=N/A speed=18.5x    frame= 1580 fps=438 q=-0.0 size=N/A time=00:01:05.89 bitrate=N/A speed=18.3x    frame= 1784 fps=432 q=-0.0 size=N/A time=00:01:14.40 bitrate=N/A speed=  18x    frame= 2051 fps=442 q=-0.0 size=N/A time=00:01:25.54 bitrate=N/A speed=18.4x    frame= 2310 fps=448 q=-0.0 size=N/A time=00:01:36.34 bitrate=N/A speed=18.7x    frame= 2591 fps=456 q=-0.0 size=N/A time=00:01:48.06 bitrate=N/A speed=  19x    frame= 2882 fps=466 q=-0.0 size=N/A time=00:02:00.20 bitrate=N/A speed=19.4x    frame= 3182 fps=475 q=-0.0 size=N/A time=00:02:12.71 bitrate=N/A speed=19.8x    frame= 3454 fps=479 q=-0.0 size=N/A time=00:02:24.06 bitrate=N/A speed=  20x    frame= 3709 fps=479 q=-0.0 size=N/A time=00:02:34.69 bitrate=N/A speed=  20x    frame= 3981 fps=483 q=-0.0 size=N/A time=00:02:46.04 bitrate=N/A speed=20.1x    frame= 4232 fps=483 q=-0.0 size=N/A time=00:02:56.50 bitrate=N/A speed=20.1x    frame= 4473 fps=482 q=-0.0 size=N/A time=00:03:06.56 bitrate=N/A speed=20.1x    frame= 4710 fps=481 q=-0.0 size=N/A time=00:03:16.44 bitrate=N/A speed=  20x    frame= 4967 fps=482 q=-0.0 size=N/A time=00:03:27.16 bitrate=N/A speed=20.1x    frame= 5213 fps=481 q=-0.0 size=N/A time=00:03:37.42 bitrate=N/A speed=20.1x    frame= 5469 fps=482 q=-0.0 size=N/A time=00:03:48.10 bitrate=N/A speed=20.1x    frame= 5727 fps=483 q=-0.0 size=N/A time=00:03:58.86 bitrate=N/A speed=20.1x    frame= 5991 fps=484 q=-0.0 size=N/A time=00:04:09.87 bitrate=N/A speed=20.2x    frame= 6251 fps=485 q=-0.0 size=N/A time=00:04:20.71 bitrate=N/A speed=20.2x    frame= 6412 fps=478 q=-0.0 size=N/A time=00:04:27.43 bitrate=N/A speed=  20x    frame= 6578 fps=472 q=-0.0 size=N/A time=00:04:34.35 bitrate=N/A speed=19.7x    frame= 6814 fps=472 q=-0.0 size=N/A time=00:04:44.20 bitrate=N/A speed=19.7x    frame= 7074 fps=473 q=-0.0 size=N/A time=00:04:55.04 bitrate=N/A speed=19.7x    frame= 7340 fps=474 q=-0.0 size=N/A time=00:05:06.13 bitrate=N/A speed=19.8x    frame= 7586 fps=475 q=-0.0 size=N/A time=00:05:16.39 bitrate=N/A speed=19.8x    frame= 7816 fps=473 q=-0.0 size=N/A time=00:05:25.99 bitrate=N/A speed=19.7x    frame= 8034 fps=472 q=-0.0 size=N/A time=00:05:35.08 bitrate=N/A speed=19.7x    frame= 8206 fps=468 q=-0.0 size=N/A time=00:05:42.25 bitrate=N/A speed=19.5x    frame= 8450 fps=468 q=-0.0 size=N/A time=00:05:52.43 bitrate=N/A speed=19.5x    frame= 8693 fps=468 q=-0.0 size=N/A time=00:06:02.57 bitrate=N/A speed=19.5x    frame= 8950 fps=469 q=-0.0 size=N/A time=00:06:13.28 bitrate=N/A speed=19.6x    frame= 9199 fps=470 q=-0.0 size=N/A time=00:06:23.67 bitrate=N/A speed=19.6x    frame= 9463 fps=471 q=-0.0 size=N/A time=00:06:34.68 bitrate=N/A speed=19.6x    frame= 9706 fps=471 q=-0.0 size=N/A time=00:06:44.82 bitrate=N/A speed=19.6x    frame= 9960 fps=471 q=-0.0 size=N/A time=00:06:55.41 bitrate=N/A speed=19.6x    frame=10232 fps=473 q=-0.0 size=N/A time=00:07:06.75 bitrate=N/A speed=19.7x    frame=10461 fps=472 q=-0.0 size=N/A time=00:07:16.31 bitrate=N/A speed=19.7x    frame=10710 fps=472 q=-0.0 size=N/A time=00:07:26.69 bitrate=N/A speed=19.7x    frame=10972 fps=472 q=-0.0 size=N/A time=00:07:37.62 bitrate=N/A speed=19.7x    frame=11155 fps=470 q=-0.0 size=N/A time=00:07:45.25 bitrate=N/A speed=19.6x    frame=11387 fps=469 q=-0.0 size=N/A time=00:07:54.93 bitrate=N/A speed=19.6x    frame=11645 fps=470 q=-0.0 size=N/A time=00:08:05.69 bitrate=N/A speed=19.6x    frame=11942 fps=472 q=-0.0 size=N/A time=00:08:18.08 bitrate=N/A speed=19.7x    frame=12236 fps=474 q=-0.0 size=N/A time=00:08:30.34 bitrate=N/A speed=19.8x    frame=12517 fps=476 q=-0.0 size=N/A time=00:08:42.06 bitrate=N/A speed=19.8x    frame=12766 fps=476 q=-0.0 size=N/A time=00:08:52.44 bitrate=N/A speed=19.8x    frame=12973 fps=474 q=-0.0 size=N/A time=00:09:01.08 bitrate=N/A speed=19.8x    frame=13210 fps=474 q=-0.0 size=N/A time=00:09:10.96 bitrate=N/A speed=19.8x    frame=13475 fps=475 q=-0.0 size=N/A time=00:09:22.01 bitrate=N/A speed=19.8x    frame=13742 fps=476 q=-0.0 size=N/A time=00:09:33.15 bitrate=N/A speed=19.8x    frame=14017 fps=476 q=-0.0 size=N/A time=00:09:44.62 bitrate=N/A speed=19.9x    frame=14252 fps=476 q=-0.0 size=N/A time=00:09:54.42 bitrate=N/A speed=19.9x    frame=14515 fps=477 q=-0.0 size=N/A time=00:10:05.39 bitrate=N/A speed=19.9x    frame=14742 fps=476 q=-0.0 size=N/A time=00:10:14.86 bitrate=N/A speed=19.8x    frame=15014 fps=477 q=-0.0 size=N/A time=00:10:26.20 bitrate=N/A speed=19.9x    frame=15250 fps=476 q=-0.0 size=N/A time=00:10:36.05 bitrate=N/A speed=19.9x    frame=15541 fps=478 q=-0.0 size=N/A time=00:10:48.18 bitrate=N/A speed=19.9x    frame=15792 fps=478 q=-0.0 size=N/A time=00:10:58.65 bitrate=N/A speed=19.9x    frame=16076 fps=479 q=-0.0 size=N/A time=00:11:10.50 bitrate=N/A speed=  20x    frame=16342 fps=480 q=-0.0 size=N/A time=00:11:21.59 bitrate=N/A speed=  20x    frame=16639 fps=481 q=-0.0 size=N/A time=00:11:33.98 bitrate=N/A speed=20.1x    frame=16922 fps=482 q=-0.0 size=N/A time=00:11:45.78 bitrate=N/A speed=20.1x    frame=17166 fps=482 q=-0.0 size=N/A time=00:11:55.96 bitrate=N/A speed=20.1x    frame=17422 fps=482 q=-0.0 size=N/A time=00:12:06.64 bitrate=N/A speed=20.1x    frame=17723 fps=484 q=-0.0 size=N/A time=00:12:19.19 bitrate=N/A speed=20.2x    frame=17992 fps=484 q=-0.0 size=N/A time=00:12:30.41 bitrate=N/A speed=20.2x    frame=18283 fps=485 q=-0.0 size=N/A time=00:12:42.55 bitrate=N/A speed=20.2x    frame=18536 fps=485 q=-0.0 size=N/A time=00:12:53.10 bitrate=N/A speed=20.2x    frame=18786 fps=485 q=-0.0 size=N/A time=00:13:03.53 bitrate=N/A speed=20.2x    frame=19052 fps=486 q=-0.0 size=N/A time=00:13:14.62 bitrate=N/A speed=20.3x    frame=19322 fps=486 q=-0.0 size=N/A time=00:13:25.88 bitrate=N/A speed=20.3x    frame=19571 fps=486 q=-0.0 size=N/A time=00:13:36.27 bitrate=N/A speed=20.3x    frame=19844 fps=487 q=-0.0 size=N/A time=00:13:47.66 bitrate=N/A speed=20.3x    frame=20078 fps=486 q=-0.0 size=N/A time=00:13:57.41 bitrate=N/A speed=20.3x    frame=20306 fps=486 q=-0.0 size=N/A time=00:14:06.92 bitrate=N/A speed=20.3x    frame=20577 fps=486 q=-0.0 size=N/A time=00:14:18.23 bitrate=N/A speed=20.3x    frame=20818 fps=486 q=-0.0 size=N/A time=00:14:28.28 bitrate=N/A speed=20.3x    frame=21048 fps=486 q=-0.0 size=N/A time=00:14:37.87 bitrate=N/A speed=20.2x    frame=21281 fps=485 q=-0.0 size=N/A time=00:14:47.59 bitrate=N/A speed=20.2x    frame=21500 fps=484 q=-0.0 size=N/A time=00:14:56.72 bitrate=N/A speed=20.2x    frame=21772 fps=485 q=-0.0 size=N/A time=00:15:08.07 bitrate=N/A speed=20.2x    frame=22022 fps=485 q=-0.0 size=N/A time=00:15:18.50 bitrate=N/A speed=20.2x    frame=22268 fps=485 q=-0.0 size=N/A time=00:15:28.76 bitrate=N/A speed=20.2x    frame=22548 fps=485 q=-0.0 size=N/A time=00:15:40.43 bitrate=N/A speed=20.2x    frame=22855 fps=487 q=-0.0 size=N/A time=00:15:53.24 bitrate=N/A speed=20.3x    frame=23133 fps=487 q=-0.0 size=N/A time=00:16:04.83 bitrate=N/A speed=20.3x    frame=23363 fps=487 q=-0.0 size=N/A time=00:16:14.43 bitrate=N/A speed=20.3x    frame=23596 fps=486 q=-0.0 size=N/A time=00:16:24.14 bitrate=N/A speed=20.3x    frame=23820 fps=486 q=-0.0 size=N/A time=00:16:33.49 bitrate=N/A speed=20.3x    frame=24057 fps=486 q=-0.0 size=N/A time=00:16:43.37 bitrate=N/A speed=20.3x    frame=24281 fps=485 q=-0.0 size=N/A time=00:16:52.72 bitrate=N/A speed=20.2x    frame=24540 fps=485 q=-0.0 size=N/A time=00:17:03.52 bitrate=N/A speed=20.2x    frame=24719 fps=484 q=-0.0 size=N/A time=00:17:10.98 bitrate=N/A speed=20.2x    frame=24889 fps=482 q=-0.0 size=N/A time=00:17:18.07 bitrate=N/A speed=20.1x    frame=25129 fps=482 q=-0.0 size=N/A time=00:17:28.08 bitrate=N/A speed=20.1x    frame=25365 fps=482 q=-0.0 size=N/A time=00:17:37.93 bitrate=N/A speed=20.1x    frame=25623 fps=482 q=-0.0 size=N/A time=00:17:48.69 bitrate=N/A speed=20.1x    frame=25876 fps=482 q=-0.0 size=N/A time=00:17:59.24 bitrate=N/A speed=20.1x    frame=26158 fps=483 q=-0.0 size=N/A time=00:18:11.00 bitrate=N/A speed=20.1x    frame=26436 fps=483 q=-0.0 size=N/A time=00:18:22.60 bitrate=N/A speed=20.2x    frame=26701 fps=484 q=-0.0 size=N/A time=00:18:33.65 bitrate=N/A speed=20.2x    frame=26956 fps=484 q=-0.0 size=N/A time=00:18:44.28 bitrate=N/A speed=20.2x    frame=27185 fps=483 q=-0.0 size=N/A time=00:18:53.84 bitrate=N/A speed=20.2x    frame=27416 fps=483 q=-0.0 size=N/A time=00:19:03.47 bitrate=N/A speed=20.1x    frame=27656 fps=483 q=-0.0 size=N/A time=00:19:13.48 bitrate=N/A speed=20.1x    frame=27897 fps=483 q=-0.0 size=N/A time=00:19:23.53 bitrate=N/A speed=20.1x    frame=28187 fps=483 q=-0.0 size=N/A time=00:19:35.63 bitrate=N/A speed=20.2x    frame=28418 fps=483 q=-0.0 size=N/A time=00:19:45.26 bitrate=N/A speed=20.1x    frame=28633 fps=482 q=-0.0 size=N/A time=00:19:54.23 bitrate=N/A speed=20.1x    frame=28867 fps=482 q=-0.0 size=N/A time=00:20:03.99 bitrate=N/A speed=20.1x    frame=29135 fps=483 q=-0.0 size=N/A time=00:20:15.17 bitrate=N/A speed=20.1x    frame=29419 fps=483 q=-0.0 size=N/A time=00:20:27.01 bitrate=N/A speed=20.1x    frame=29683 fps=483 q=-0.0 size=N/A time=00:20:38.02 bitrate=N/A speed=20.2x    frame=29943 fps=484 q=-0.0 size=N/A time=00:20:48.87 bitrate=N/A speed=20.2x    frame=30173 fps=483 q=-0.0 size=N/A time=00:20:58.46 bitrate=N/A speed=20.2x    frame=30442 fps=484 q=-0.0 size=N/A time=00:21:09.68 bitrate=N/A speed=20.2x    frame=30689 fps=483 q=-0.0 size=N/A time=00:21:19.98 bitrate=N/A speed=20.2x    frame=30953 fps=484 q=-0.0 size=N/A time=00:21:31.03 bitrate=N/A speed=20.2x    frame=31205 fps=484 q=-0.0 size=N/A time=00:21:41.50 bitrate=N/A speed=20.2x    frame=31430 fps=483 q=-0.0 size=N/A time=00:21:50.89 bitrate=N/A speed=20.2x    frame=31639 fps=483 q=-0.0 size=N/A time=00:21:59.60 bitrate=N/A speed=20.1x    frame=31843 fps=482 q=-0.0 size=N/A time=00:22:08.11 bitrate=N/A speed=20.1x    frame=32064 fps=482 q=-0.0 size=N/A time=00:22:17.33 bitrate=N/A speed=20.1x    frame=32284 fps=481 q=-0.0 size=N/A time=00:22:26.51 bitrate=N/A speed=20.1x    frame=32504 fps=481 q=-0.0 size=N/A time=00:22:35.68 bitrate=N/A speed=20.1x    frame=32757 fps=481 q=-0.0 size=N/A time=00:22:46.23 bitrate=N/A speed=20.1x    frame=32950 fps=480 q=-0.0 size=N/A time=00:22:54.28 bitrate=N/A speed=  20x    frame=33134 fps=479 q=-0.0 size=N/A time=00:23:01.96 bitrate=N/A speed=  20x    frame=33379 fps=479 q=-0.0 size=N/A time=00:23:12.18 bitrate=N/A speed=  20x    frame=33635 fps=479 q=-0.0 size=N/A time=00:23:22.85 bitrate=N/A speed=  20x    frame=33855 fps=479 q=-0.0 size=N/A time=00:23:32.03 bitrate=N/A speed=  20x    frame=34100 fps=479 q=-0.0 size=N/A time=00:23:42.25 bitrate=N/A speed=  20x    frame=34323 fps=479 q=-0.0 size=N/A time=00:23:51.55 bitrate=N/A speed=  20x    frame=34576 fps=479 q=-0.0 size=N/A time=00:24:02.10 bitrate=N/A speed=  20x    frame=34845 fps=479 q=-0.0 size=N/A time=00:24:13.32 bitrate=N/A speed=  20x    frame=35026 fps=478 q=-0.0 size=N/A time=00:24:20.87 bitrate=N/A speed=19.9x    frame=35249 fps=478 q=-0.0 size=N/A time=00:24:30.17 bitrate=N/A speed=19.9x    frame=35440 fps=477 q=-0.0 size=N/A time=00:24:38.14 bitrate=N/A speed=19.9x    frame=35648 fps=477 q=-0.0 size=N/A time=00:24:46.81 bitrate=N/A speed=19.9x    frame=35809 fps=475 q=-0.0 size=N/A time=00:24:53.53 bitrate=N/A speed=19.8x    frame=36027 fps=475 q=-0.0 size=N/A time=00:25:02.62 bitrate=N/A speed=19.8x    frame=36248 fps=475 q=-0.0 size=N/A time=00:25:11.84 bitrate=N/A speed=19.8x    frame=36417 fps=474 q=-0.0 size=N/A time=00:25:18.89 bitrate=N/A speed=19.8x    frame=36586 fps=473 q=-0.0 size=N/A time=00:25:25.94 bitrate=N/A speed=19.7x    frame=36764 fps=472 q=-0.0 size=N/A time=00:25:33.36 bitrate=N/A speed=19.7x    frame=36980 fps=472 q=-0.0 size=N/A time=00:25:42.37 bitrate=N/A speed=19.7x    frame=37191 fps=471 q=-0.0 size=N/A time=00:25:51.17 bitrate=N/A speed=19.7x    frame=37429 fps=471 q=-0.0 size=N/A time=00:26:01.10 bitrate=N/A speed=19.6x    frame=37667 fps=471 q=-0.0 size=N/A time=00:26:11.02 bitrate=N/A speed=19.6x    frame=37955 fps=472 q=-0.0 size=N/A time=00:26:23.03 bitrate=N/A speed=19.7x    frame=38201 fps=472 q=-0.0 size=N/A time=00:26:33.30 bitrate=N/A speed=19.7x    frame=38405 fps=471 q=-0.0 size=N/A time=00:26:41.80 bitrate=N/A speed=19.7x    frame=38641 fps=471 q=-0.0 size=N/A time=00:26:51.65 bitrate=N/A speed=19.6x    frame=38880 fps=471 q=-0.0 size=N/A time=00:27:01.62 bitrate=N/A speed=19.6x    frame=39110 fps=471 q=-0.0 size=N/A time=00:27:11.21 bitrate=N/A speed=19.6x    frame=39360 fps=471 q=-0.0 size=N/A time=00:27:21.64 bitrate=N/A speed=19.6x    frame=39616 fps=471 q=-0.0 size=N/A time=00:27:32.31 bitrate=N/A speed=19.6x    frame=39869 fps=471 q=-0.0 size=N/A time=00:27:42.86 bitrate=N/A speed=19.7x    frame=40131 fps=471 q=-0.0 size=N/A time=00:27:53.79 bitrate=N/A speed=19.7x    frame=40385 fps=472 q=-0.0 size=N/A time=00:28:04.39 bitrate=N/A speed=19.7x    frame=40635 fps=472 q=-0.0 size=N/A time=00:28:14.81 bitrate=N/A speed=19.7x    frame=40868 fps=472 q=-0.0 size=N/A time=00:28:24.53 bitrate=N/A speed=19.7x    frame=41130 fps=472 q=-0.0 size=N/A time=00:28:35.46 bitrate=N/A speed=19.7x    frame=41373 fps=472 q=-0.0 size=N/A time=00:28:45.59 bitrate=N/A speed=19.7x    frame=41647 fps=472 q=-0.0 size=N/A time=00:28:57.02 bitrate=N/A speed=19.7x    frame=41945 fps=473 q=-0.0 size=N/A time=00:29:09.45 bitrate=N/A speed=19.7x    frame=42212 fps=473 q=-0.0 size=N/A time=00:29:20.59 bitrate=N/A speed=19.7x    frame=42478 fps=473 q=-0.0 size=N/A time=00:29:31.68 bitrate=N/A speed=19.7x    frame=42735 fps=473 q=-0.0 size=N/A time=00:29:42.40 bitrate=N/A speed=19.7x    frame=43005 fps=474 q=-0.0 size=N/A time=00:29:53.66 bitrate=N/A speed=19.8x    frame=43259 fps=474 q=-0.0 size=N/A time=00:30:04.26 bitrate=N/A speed=19.8x    frame=43509 fps=474 q=-0.0 size=N/A time=00:30:14.68 bitrate=N/A speed=19.8x    frame=43762 fps=474 q=-0.0 size=N/A time=00:30:25.24 bitrate=N/A speed=19.8x    frame=44002 fps=474 q=-0.0 size=N/A time=00:30:35.25 bitrate=N/A speed=19.8x    frame=44272 fps=474 q=-0.0 size=N/A time=00:30:46.51 bitrate=N/A speed=19.8x    frame=44493 fps=474 q=-0.0 size=N/A time=00:30:55.72 bitrate=N/A speed=19.8x    frame=44761 fps=474 q=-0.0 size=N/A time=00:31:06.90 bitrate=N/A speed=19.8x    frame=45037 fps=474 q=-0.0 size=N/A time=00:31:18.41 bitrate=N/A speed=19.8x    frame=45309 fps=475 q=-0.0 size=N/A time=00:31:29.76 bitrate=N/A speed=19.8x    frame=45565 fps=475 q=-0.0 size=N/A time=00:31:40.44 bitrate=N/A speed=19.8x    frame=45803 fps=475 q=-0.0 size=N/A time=00:31:50.36 bitrate=N/A speed=19.8x    frame=46059 fps=475 q=-0.0 size=N/A time=00:32:01.04 bitrate=N/A speed=19.8x    frame=46326 fps=475 q=-0.0 size=N/A time=00:32:12.18 bitrate=N/A speed=19.8x    frame=46574 fps=475 q=-0.0 size=N/A time=00:32:22.52 bitrate=N/A speed=19.8x    frame=46856 fps=476 q=-0.0 size=N/A time=00:32:34.28 bitrate=N/A speed=19.8x    frame=47086 fps=475 q=-0.0 size=N/A time=00:32:43.87 bitrate=N/A speed=19.8x    frame=47365 fps=476 q=-0.0 size=N/A time=00:32:55.51 bitrate=N/A speed=19.8x    frame=47635 fps=476 q=-0.0 size=N/A time=00:33:06.77 bitrate=N/A speed=19.9x    frame=47889 fps=476 q=-0.0 size=N/A time=00:33:17.37 bitrate=N/A speed=19.9x    frame=48147 fps=476 q=-0.0 size=N/A time=00:33:28.13 bitrate=N/A speed=19.9x    frame=48366 fps=476 q=-0.0 size=N/A time=00:33:37.26 bitrate=N/A speed=19.9x    frame=48620 fps=476 q=-0.0 size=N/A time=00:33:47.85 bitrate=N/A speed=19.9x    frame=48823 fps=476 q=-0.0 size=N/A time=00:33:56.32 bitrate=N/A speed=19.8x    frame=49071 fps=476 q=-0.0 size=N/A time=00:34:06.66 bitrate=N/A speed=19.8x    frame=49272 fps=475 q=-0.0 size=N/A time=00:34:15.05 bitrate=N/A speed=19.8x    frame=49545 fps=475 q=-0.0 size=N/A time=00:34:26.43 bitrate=N/A speed=19.8x    frame=49805 fps=476 q=-0.0 size=N/A time=00:34:37.28 bitrate=N/A speed=19.8x    frame=50048 fps=476 q=-0.0 size=N/A time=00:34:47.41 bitrate=N/A speed=19.8x    frame=50296 fps=476 q=-0.0 size=N/A time=00:34:57.76 bitrate=N/A speed=19.8x    frame=50556 fps=476 q=-0.0 size=N/A time=00:35:08.60 bitrate=N/A speed=19.8x    frame=50798 fps=476 q=-0.0 size=N/A time=00:35:18.69 bitrate=N/A speed=19.8x    frame=51081 fps=476 q=-0.0 size=N/A time=00:35:30.50 bitrate=N/A speed=19.9x    frame=51358 fps=476 q=-0.0 size=N/A time=00:35:42.05 bitrate=N/A speed=19.9x    frame=51613 fps=476 q=-0.0 size=N/A time=00:35:52.69 bitrate=N/A speed=19.9x    frame=51865 fps=476 q=-0.0 size=N/A time=00:36:03.20 bitrate=N/A speed=19.9x    frame=52111 fps=476 q=-0.0 size=N/A time=00:36:13.46 bitrate=N/A speed=19.9x    frame=52353 fps=476 q=-0.0 size=N/A time=00:36:23.55 bitrate=N/A speed=19.9x    frame=52621 fps=477 q=-0.0 size=N/A time=00:36:34.73 bitrate=N/A speed=19.9x    frame=52882 fps=477 q=-0.0 size=N/A time=00:36:45.62 bitrate=N/A speed=19.9x    frame=53114 fps=477 q=-0.0 size=N/A time=00:36:55.29 bitrate=N/A speed=19.9x    frame=53376 fps=477 q=-0.0 size=N/A time=00:37:06.22 bitrate=N/A speed=19.9x    frame=53672 fps=477 q=-0.0 size=N/A time=00:37:18.56 bitrate=N/A speed=19.9x    frame=53919 fps=477 q=-0.0 size=N/A time=00:37:28.87 bitrate=N/A speed=19.9x    frame=54183 fps=477 q=-0.0 size=N/A time=00:37:39.88 bitrate=N/A speed=19.9x    frame=54438 fps=477 q=-0.0 size=N/A time=00:37:50.51 bitrate=N/A speed=19.9x    frame=54714 fps=478 q=-0.0 size=N/A time=00:38:02.02 bitrate=N/A speed=19.9x    frame=54977 fps=478 q=-0.0 size=N/A time=00:38:12.99 bitrate=N/A speed=19.9x    frame=55177 fps=477 q=-0.0 size=N/A time=00:38:21.34 bitrate=N/A speed=19.9x    frame=55442 fps=478 q=-0.0 size=N/A time=00:38:32.39 bitrate=N/A speed=19.9x    frame=55683 fps=478 q=-0.0 size=N/A time=00:38:42.44 bitrate=N/A speed=19.9x    frame=55949 fps=478 q=-0.0 size=N/A time=00:38:53.53 bitrate=N/A speed=19.9x    frame=56240 fps=478 q=-0.0 size=N/A time=00:39:05.67 bitrate=N/A speed=19.9x    frame=56501 fps=478 q=-0.0 size=N/A time=00:39:16.56 bitrate=N/A speed=19.9x    frame=56767 fps=478 q=-0.0 size=N/A time=00:39:27.65 bitrate=N/A speed=  20x    frame=57028 fps=479 q=-0.0 size=N/A time=00:39:38.54 bitrate=N/A speed=  20x    frame=57307 fps=479 q=-0.0 size=N/A time=00:39:50.17 bitrate=N/A speed=  20x    frame=57556 fps=479 q=-0.0 size=N/A time=00:40:00.56 bitrate=N/A speed=  20x    frame=57828 fps=479 q=-0.0 size=N/A time=00:40:11.90 bitrate=N/A speed=  20x    frame=58058 fps=479 q=-0.0 size=N/A time=00:40:21.50 bitrate=N/A speed=  20x    frame=58330 fps=479 q=-0.0 size=N/A time=00:40:32.84 bitrate=N/A speed=  20x    frame=58564 fps=479 q=-0.0 size=N/A time=00:40:42.60 bitrate=N/A speed=  20x    frame=58762 fps=479 q=-0.0 size=N/A time=00:40:50.86 bitrate=N/A speed=  20x    frame=58950 fps=478 q=-0.0 size=N/A time=00:40:58.70 bitrate=N/A speed=19.9x    frame=59133 fps=478 q=-0.0 size=N/A time=00:41:06.33 bitrate=N/A speed=19.9x    frame=59365 fps=478 q=-0.0 size=N/A time=00:41:16.01 bitrate=N/A speed=19.9x    frame=59606 fps=477 q=-0.0 size=N/A time=00:41:26.06 bitrate=N/A speed=19.9x    frame=59822 fps=477 q=-0.0 size=N/A time=00:41:35.07 bitrate=N/A speed=19.9x    frame=60071 fps=477 q=-0.0 size=N/A time=00:41:45.46 bitrate=N/A speed=19.9x    frame=60333 fps=477 q=-0.0 size=N/A time=00:41:56.38 bitrate=N/A speed=19.9x    frame=60573 fps=477 q=-0.0 size=N/A time=00:42:06.39 bitrate=N/A speed=19.9x    frame=60781 fps=477 q=-0.0 size=N/A time=00:42:15.07 bitrate=N/A speed=19.9x    frame=60994 fps=477 q=-0.0 size=N/A time=00:42:23.95 bitrate=N/A speed=19.9x    frame=61229 fps=477 q=-0.0 size=N/A time=00:42:33.75 bitrate=N/A speed=19.9x    frame=61467 fps=477 q=-0.0 size=N/A time=00:42:43.68 bitrate=N/A speed=19.9x    frame=61691 fps=476 q=-0.0 size=N/A time=00:42:53.02 bitrate=N/A speed=19.9x    frame=61903 fps=476 q=-0.0 size=N/A time=00:43:01.87 bitrate=N/A speed=19.9x    frame=62160 fps=476 q=-0.0 size=N/A time=00:43:12.59 bitrate=N/A speed=19.9x    frame=62409 fps=476 q=-0.0 size=N/A time=00:43:22.97 bitrate=N/A speed=19.9x    frame=62666 fps=476 q=-0.0 size=N/A time=00:43:33.69 bitrate=N/A speed=19.9x    frame=62860 fps=476 q=-0.0 size=N/A time=00:43:41.78 bitrate=N/A speed=19.9x    frame=63125 fps=476 q=-0.0 size=N/A time=00:43:52.83 bitrate=N/A speed=19.9x    frame=63377 fps=476 q=-0.0 size=N/A time=00:44:03.34 bitrate=N/A speed=19.9x    frame=63646 fps=476 q=-0.0 size=N/A time=00:44:14.56 bitrate=N/A speed=19.9x    frame=63905 fps=476 q=-0.0 size=N/A time=00:44:25.37 bitrate=N/A speed=19.9x    frame=64149 fps=476 q=-0.0 size=N/A time=00:44:35.54 bitrate=N/A speed=19.9x    frame=64428 fps=477 q=-0.0 size=N/A time=00:44:47.18 bitrate=N/A speed=19.9x    frame=64666 fps=477 q=-0.0 size=N/A time=00:44:57.11 bitrate=N/A speed=19.9x    frame=64869 fps=476 q=-0.0 size=N/A time=00:45:05.57 bitrate=N/A speed=19.9x    frame=65084 fps=476 q=-0.0 size=N/A time=00:45:14.54 bitrate=N/A speed=19.9x    frame=65280 fps=476 q=-0.0 size=N/A time=00:45:22.72 bitrate=N/A speed=19.8x    frame=65469 fps=475 q=-0.0 size=N/A time=00:45:30.60 bitrate=N/A speed=19.8x    frame=65710 fps=475 q=-0.0 size=N/A time=00:45:40.65 bitrate=N/A speed=19.8x    frame=65901 fps=475 q=-0.0 size=N/A time=00:45:48.62 bitrate=N/A speed=19.8x    frame=66105 fps=475 q=-0.0 size=N/A time=00:45:57.12 bitrate=N/A speed=19.8x    frame=66321 fps=474 q=-0.0 size=N/A time=00:46:06.13 bitrate=N/A speed=19.8x    frame=66527 fps=474 q=-0.0 size=N/A time=00:46:14.73 bitrate=N/A speed=19.8x    frame=66772 fps=474 q=-0.0 size=N/A time=00:46:24.94 bitrate=N/A speed=19.8x    frame=66986 fps=474 q=-0.0 size=N/A time=00:46:33.87 bitrate=N/A speed=19.8x    frame=67206 fps=474 q=-0.0 size=N/A time=00:46:43.05 bitrate=N/A speed=19.8x    frame=67390 fps=473 q=-0.0 size=N/A time=00:46:50.72 bitrate=N/A speed=19.7x    frame=67649 fps=473 q=-0.0 size=N/A time=00:47:01.52 bitrate=N/A speed=19.7x    frame=67875 fps=473 q=-0.0 size=N/A time=00:47:10.95 bitrate=N/A speed=19.7x    frame=68127 fps=473 q=-0.0 size=N/A time=00:47:21.46 bitrate=N/A speed=19.7x    frame=68378 fps=473 q=-0.0 size=N/A time=00:47:31.93 bitrate=N/A speed=19.7x    frame=68615 fps=473 q=-0.0 size=N/A time=00:47:41.81 bitrate=N/A speed=19.7x    frame=68872 fps=473 q=-0.0 size=N/A time=00:47:52.53 bitrate=N/A speed=19.7x    frame=69141 fps=474 q=-0.0 size=N/A time=00:48:03.75 bitrate=N/A speed=19.8x    frame=69365 fps=473 q=-0.0 size=N/A time=00:48:13.09 bitrate=N/A speed=19.7x    frame=69585 fps=473 q=-0.0 size=N/A time=00:48:22.27 bitrate=N/A speed=19.7x    frame=69827 fps=473 q=-0.0 size=N/A time=00:48:32.36 bitrate=N/A speed=19.7x    frame=70067 fps=473 q=-0.0 size=N/A time=00:48:42.37 bitrate=N/A speed=19.7x    frame=70272 fps=473 q=-0.0 size=N/A time=00:48:50.92 bitrate=N/A speed=19.7x    frame=70415 fps=472 q=-0.0 size=N/A time=00:48:56.89 bitrate=N/A speed=19.7x    frame=70570 fps=472 q=-0.0 size=N/A time=00:49:03.35 bitrate=N/A speed=19.7x    frame=70702 fps=471 q=-0.0 size=N/A time=00:49:08.86 bitrate=N/A speed=19.6x    frame=70809 fps=470 q=-0.0 size=N/A time=00:49:13.32 bitrate=N/A speed=19.6x    frame=70954 fps=469 q=-0.0 size=N/A time=00:49:19.37 bitrate=N/A speed=19.6x    frame=71103 fps=469 q=-0.0 size=N/A time=00:49:25.58 bitrate=N/A speed=19.6x    frame=71234 fps=468 q=-0.0 size=N/A time=00:49:31.05 bitrate=N/A speed=19.5x    frame=71445 fps=468 q=-0.0 size=N/A time=00:49:39.85 bitrate=N/A speed=19.5x    frame=71664 fps=468 q=-0.0 size=N/A time=00:49:48.98 bitrate=N/A speed=19.5x    frame=71870 fps=468 q=-0.0 size=N/A time=00:49:57.57 bitrate=N/A speed=19.5x    frame=72095 fps=467 q=-0.0 size=N/A time=00:50:06.96 bitrate=N/A speed=19.5x    frame=72323 fps=467 q=-0.0 size=N/A time=00:50:16.47 bitrate=N/A speed=19.5x    frame=72561 fps=467 q=-0.0 size=N/A time=00:50:26.39 bitrate=N/A speed=19.5x    frame=72781 fps=467 q=-0.0 size=N/A time=00:50:35.57 bitrate=N/A speed=19.5x    frame=73012 fps=467 q=-0.0 size=N/A time=00:50:45.20 bitrate=N/A speed=19.5x    frame=73225 fps=467 q=-0.0 size=N/A time=00:50:54.09 bitrate=N/A speed=19.5x    frame=73441 fps=467 q=-0.0 size=N/A time=00:51:03.10 bitrate=N/A speed=19.5x    frame=73665 fps=467 q=-0.0 size=N/A time=00:51:12.44 bitrate=N/A speed=19.5x    frame=73875 fps=466 q=-0.0 size=N/A time=00:51:21.20 bitrate=N/A speed=19.5x    frame=74158 fps=467 q=-0.0 size=N/A time=00:51:33.00 bitrate=N/A speed=19.5x    frame=74419 fps=467 q=-0.0 size=N/A time=00:51:43.89 bitrate=N/A speed=19.5x    frame=74675 fps=467 q=-0.0 size=N/A time=00:51:54.56 bitrate=N/A speed=19.5x    frame=74876 fps=467 q=-0.0 size=N/A time=00:52:02.95 bitrate=N/A speed=19.5x    frame=75119 fps=467 q=-0.0 size=N/A time=00:52:13.08 bitrate=N/A speed=19.5x    frame=75362 fps=467 q=-0.0 size=N/A time=00:52:23.22 bitrate=N/A speed=19.5x    frame=75618 fps=467 q=-0.0 size=N/A time=00:52:33.90 bitrate=N/A speed=19.5x    frame=75883 fps=467 q=-0.0 size=N/A time=00:52:44.95 bitrate=N/A speed=19.5x    frame=76149 fps=467 q=-0.0 size=N/A time=00:52:56.04 bitrate=N/A speed=19.5x    frame=76417 fps=467 q=-0.0 size=N/A time=00:53:07.22 bitrate=N/A speed=19.5x    frame=76686 fps=468 q=-0.0 size=N/A time=00:53:18.44 bitrate=N/A speed=19.5x    frame=76964 fps=468 q=-0.0 size=N/A time=00:53:30.04 bitrate=N/A speed=19.5x    frame=77244 fps=468 q=-0.0 size=N/A time=00:53:41.71 bitrate=N/A speed=19.5x    frame=77532 fps=468 q=-0.0 size=N/A time=00:53:53.73 bitrate=N/A speed=19.5x    frame=77733 fps=468 q=-0.0 size=N/A time=00:54:02.11 bitrate=N/A speed=19.5x    frame=77951 fps=468 q=-0.0 size=N/A time=00:54:11.20 bitrate=N/A speed=19.5x    frame=78161 fps=468 q=-0.0 size=N/A time=00:54:19.96 bitrate=N/A speed=19.5x    frame=78350 fps=467 q=-0.0 size=N/A time=00:54:27.84 bitrate=N/A speed=19.5x    frame=78599 fps=467 q=-0.0 size=N/A time=00:54:38.23 bitrate=N/A speed=19.5x    frame=78794 fps=467 q=-0.0 size=N/A time=00:54:46.36 bitrate=N/A speed=19.5x    frame=78949 fps=467 q=-0.0 size=N/A time=00:54:52.83 bitrate=N/A speed=19.5x    frame=79132 fps=466 q=-0.0 size=N/A time=00:55:00.46 bitrate=N/A speed=19.4x    frame=79330 fps=466 q=-0.0 size=N/A time=00:55:08.72 bitrate=N/A speed=19.4x    frame=79530 fps=466 q=-0.0 size=N/A time=00:55:17.06 bitrate=N/A speed=19.4x    frame=79727 fps=466 q=-0.0 size=N/A time=00:55:25.28 bitrate=N/A speed=19.4x    frame=79959 fps=466 q=-0.0 size=N/A time=00:55:34.95 bitrate=N/A speed=19.4x    frame=80203 fps=466 q=-0.0 size=N/A time=00:55:45.13 bitrate=N/A speed=19.4x    [Parsed_ssim_10 @ 000001514568b180] SSIM Y:0.992371 (21.175305) U:0.993842 (22.105267) V:0.993858 (22.116755) All:0.992864 (21.465369)
[out#0/null @ 00000151424a1200] video:34554KiB audio:628896KiB subtitle:0KiB other streams:0KiB global headers:0KiB muxing overhead: unknown
frame=80417 fps=466 q=-0.0 Lsize=N/A time=00:55:54.05 bitrate=N/A speed=19.4x    
